The House Guest (2011) S02E16
Aired 2/24/2011

Katherine's mind games are getting on everyone's nerves, but Damon, Stefan and Elena realize that her knowledge of Mystic Falls history will help them stay alive. Frustrated with her relationship with Matt, Caroline finds a new way to get his attention. Alaric makes a surprising confession to Jenna, and Katherine makes a different kind of confession to Damon. Stefan and Bonnie try to convince Jonas and Luka that they should all be working together, but Jonas' lack of trust leads to a violent and fiery confrontation.

General
Complete name                    :The Vampire Diaries S02E16 HDTV_JHW.mp4
Format                           : MPEG-4
Format profile                   : Base Media
Codec ID                         : isom
File size                        : 240 MiB
Duration                         : 40mn 19s
Overall bit rate                 : 832 Kbps
Writing application              : Lavf50.4.0

Video
ID                               : 1
Format                           : AVC
Format/Info                      : Advanced Video Codec
Format profile                   : Main@L5.1
Format settings, CABAC           : Yes
Format settings, ReFrames        : 1 frame
Codec ID                         : avc1
Codec ID/Info                    : Advanced Video Coding
Duration                         : 40mn 19s
Bit rate mode                    : Variable
Bit rate                         : 699 Kbps
Width                            : 720 pixels
Height                           : 400 pixels
Display aspect ratio             : 16:9
Frame rate mode                  : Constant
Frame rate                       : 29.970 fps
Color space                      : YUV
Chroma subsampling               : 4:2:0
Bit depth                        : 8 bits
Scan type                        : Progressive
Bits/(Pixel*Frame)               : 0.081
Stream size                      : 202 MiB (84%)

Audio
ID                               : 2
Format                           : AAC
Format/Info                      : Advanced Audio Codec
Format profile                   : LC
Codec ID                         : 40
Duration                         : 40mn 19s
Bit rate mode                    : Variable
Bit rate                         : 128 Kbps
Channel(s)                       : 2 channels
Channel positions                : Front: L R
Sampling rate                    : 48.0 KHz
Compression mode                 : Lossy
Stream size                      : 36.9 MiB (15%)
 
http://img4.imageshack.us/img4/1999/vlcsnap2011022500h59m00.png
 
http://img26.imageshack.us/img26/3509/vlcsnap2011022500h59m26.png
 
http://img718.imageshack.us/img718/2349/vlcsnap2011022501h00m59.png
 
http://img28.imageshack.us/img28/3169/vlcsnap2011022501h01m05.png
 
http://img4.imageshack.us/img4/9678/vlcsnap2011022501h01m18.png
 
http://img64.imageshack.us/img64/4619/vlcsnap2011022501h01m29.png